<?xml version="1.0" standalone="no"?>
<!DOCTYPE svg PUBLIC "-//W3C//DTD SVG 20010904//EN"
 "http://www.w3.org/TR/2001/REC-SVG-20010904/DTD/svg10.dtd">
<svg version="1.0" xmlns="http://www.w3.org/2000/svg"
 width="1024.000000pt" height="1024.000000pt" viewBox="0 0 1024.000000 1024.000000"
 preserveAspectRatio="xMidYMid meet">
<metadata>
Created by potrace 1.11, written by Peter Selinger 2001-2013
</metadata>
<g transform="translate(0.000000,1024.000000) scale(0.100000,-0.100000)"
fill="#000000" stroke="none">
<path d="M0 5120 l0 -5120 5120 0 5120 0 0 5120 0 5120 -5120 0 -5120 0 0
-5120z m4195 3351 c147 -38 259 -120 314 -230 72 -141 65 90 71 -2581 5 -2340
6 -2406 24 -2443 11 -22 37 -51 59 -65 l41 -27 743 -3 c487 -2 757 1 782 8 52
14 90 46 112 94 16 36 19 68 19 259 l0 217 536 0 536 0 -5 -557 c-5 -615 -7
-637 -69 -763 -60 -122 -172 -202 -330 -234 -68 -14 -252 -16 -1608 -16 -1697
0 -1615 -3 -1757 66 -116 56 -188 152 -230 306 -16 59 -18 232 -23 2468 l-5
2405 -24 38 c-44 72 -76 80 -328 85 l-223 4 0 495 0 494 658 -4 c489 -3 670
-7 707 -16z"/>
</g>
</svg>
